<svg width="currentWidth" height="currentHeight" viewBox="0 0 30 30" fill="none" xmlns="http://www.w3.org/2000/svg">
<path d="M30 12.3864C30 11.6631 29.7127 10.9694 29.2012 10.4579C28.6897 9.94644 27.996 9.6591 27.2727 9.6591H18.6545L19.9636 3.42728C19.9909 3.29092 20.0045 3.14092 20.0045 2.99092C20.0045 2.43183 19.7727 1.91365 19.4045 1.54547L17.9591 0.113647L8.98636 9.08638C8.48182 9.59092 8.18182 10.2727 8.18182 11.0227V24.6591C8.18182 25.3824 8.46916 26.0761 8.98062 26.5876C9.49208 27.099 10.1858 27.3864 10.9091 27.3864H23.1818C24.3136 27.3864 25.2818 26.7046 25.6909 25.7227L29.8091 16.1091C29.9318 15.7955 30 15.4682 30 15.1136V12.3864ZM0 27.3864H5.45455V11.0227H0V27.3864Z" fill="currentColor"/>
</svg>
