<svg width="currentWidth" height="currentHeight" viewBox="0 0 30 30" fill="none" xmlns="http://www.w3.org/2000/svg">
<path d="M21.25 11.5L27.7662 6.9375C27.8599 6.87182 27.9699 6.83312 28.0841 6.82563C28.1982 6.81813 28.3123 6.84213 28.4138 6.89499C28.5152 6.94786 28.6003 7.02757 28.6596 7.12544C28.7188 7.22331 28.7501 7.33557 28.75 7.45V22.55C28.7501 22.6644 28.7188 22.7767 28.6596 22.8746C28.6003 22.9724 28.5152 23.0521 28.4138 23.105C28.3123 23.1579 28.1982 23.1819 28.0841 23.1744C27.9699 23.1669 27.8599 23.1282 27.7662 23.0625L21.25 18.5V23.75C21.25 24.0815 21.1183 24.3995 20.8839 24.6339C20.6495 24.8683 20.3315 25 20 25H2.5C2.16848 25 1.85054 24.8683 1.61612 24.6339C1.3817 24.3995 1.25 24.0815 1.25 23.75V6.25C1.25 5.91848 1.3817 5.60054 1.61612 5.36612C1.85054 5.1317 2.16848 5 2.5 5H20C20.3315 5 20.6495 5.1317 20.8839 5.36612C21.1183 5.60054 21.25 5.91848 21.25 6.25V11.5Z" fill="currentColor"/>
</svg>
