<svg width="currentWidth" height="currentHeight" viewBox="0 0 30 30" fill="none" xmlns="http://www.w3.org/2000/svg">
<path fill-rule="evenodd" clip-rule="evenodd" d="M30 15C30 14.386 29.6682 13.9841 29.0046 13.1768C26.5758 10.2281 21.2189 4.73779 15 4.73779C8.78107 4.73779 3.42417 10.2281 0.995439 13.1768C0.331813 13.9841 0 14.386 0 15C0 15.6141 0.331813 16.016 0.995439 16.8233C3.42417 19.772 8.78107 25.2623 15 25.2623C21.2189 25.2623 26.5758 19.772 29.0046 16.8233C29.6682 16.016 30 15.6141 30 15ZM15 20.1312C16.3609 20.1312 17.666 19.5906 18.6283 18.6283C19.5905 17.666 20.1311 16.3609 20.1311 15C20.1311 13.6392 19.5905 12.3341 18.6283 11.3718C17.666 10.4095 16.3609 9.86892 15 9.86892C13.6391 9.86892 12.334 10.4095 11.3717 11.3718C10.4095 12.3341 9.86887 13.6392 9.86887 15C9.86887 16.3609 10.4095 17.666 11.3717 18.6283C12.334 19.5906 13.6391 20.1312 15 20.1312Z" fill="currentColor"/>
</svg>
