<svg width="currentWidth" height="currentHeight" viewBox="0 0 30 30" fill="none" xmlns="http://www.w3.org/2000/svg">
<path d="M13.8169 18.065H9.58522C9.33479 18.065 9.132 18.2678 9.132 18.5183V25.0886C9.132 25.339 9.33479 25.5418 9.58522 25.5418H13.8169C14.0674 25.5418 14.2699 25.339 14.2699 25.0886V18.518C14.2699 18.2675 14.0671 18.065 13.8169 18.065ZM20.4151 4.5H16.1834C15.9329 4.5 15.7301 4.70279 15.7301 4.95322V25.0883C15.7301 25.3387 15.9329 25.5415 16.1834 25.5415H20.4151C20.6655 25.5415 20.8683 25.3387 20.8683 25.0883V4.95322C20.8683 4.70279 20.6655 4.5 20.4151 4.5ZM27.0471 10.6171H22.8154C22.5649 10.6171 22.3621 10.8199 22.3621 11.0703V25.0883C22.3621 25.3387 22.5649 25.5415 22.8154 25.5415H27.0468C27.2972 25.5415 27.5 25.3387 27.5 25.0883V11.0703C27.5 10.8202 27.2972 10.6171 27.0471 10.6171ZM7.18493 10.6171H2.95322C2.70279 10.6171 2.5 10.8199 2.5 11.0703V25.0883C2.5 25.3387 2.70279 25.5415 2.95322 25.5415H7.18493C7.43536 25.5415 7.63815 25.3387 7.63815 25.0883V11.0703C7.63815 10.8202 7.43536 10.6171 7.18493 10.6171Z" fill="currentColor"/>
</svg>
