<svg width="currentWidth" height="currentHeight" viewBox="0 0 30 30" fill="none" xmlns="http://www.w3.org/2000/svg">
<path d="M28.75 12.5C28.75 11.837 28.4866 11.2011 28.0178 10.7322C27.5489 10.2634 26.913 10 26.25 10H18.35L19.55 4.2875C19.575 4.1625 19.5875 4.025 19.5875 3.8875C19.5875 3.375 19.375 2.9 19.0375 2.5625L17.7125 1.25L9.4875 9.475C9.025 9.9375 8.75 10.5625 8.75 11.25V23.75C8.75 24.413 9.01339 25.0489 9.48223 25.5178C9.95107 25.9866 10.587 26.25 11.25 26.25H22.5C23.5375 26.25 24.425 25.625 24.8 24.725L28.575 15.9125C28.6875 15.625 28.75 15.325 28.75 15V12.5ZM1.25 26.25H6.25V11.25H1.25V26.25Z" fill="currentColor"/>
</svg>
